<svg width="98" height="98" viewBox="0 0 98 98" fill="none" xmlns="http://www.w3.org/2000/svg">
<g filter="url(#filter0_dd_1104_22442)">
<g clip-path="url(#clip0_1104_22442)">
<rect x="6.85742" y="2.28613" width="84" height="84" rx="42" fill="#1A47B8"/>
<path fill-rule="evenodd" clip-rule="evenodd" d="M2.56688 2.28613H-9.94336V16.2861L95.0785 86.2861L107.657 86.2861V72.2861L2.56688 2.28613Z" fill="white"/>
<path d="M-5.77081 2.28613L107.657 78.0845V86.2861L103.582 86.2861L-9.94336 10.4093V2.28613H-5.77081Z" fill="#F93939"/>
<path fill-rule="evenodd" clip-rule="evenodd" d="M96.4566 2.28613H107.657V16.2861C107.657 16.2861 34.9115 62.9232 1.25664 86.2861H-9.94336V72.2861L96.4566 2.28613Z" fill="white"/>
<path d="M107.657 2.28613H103.858L-9.94336 78.1498V86.2861H-5.77081L107.657 10.4706V2.28613Z" fill="#F93939"/>
<path fill-rule="evenodd" clip-rule="evenodd" d="M32.8243 2.28613H64.9868V28.1963H107.657V60.3589H64.9868V86.2861H32.8243V60.3589H-9.94336V28.1963H32.8243V2.28613Z" fill="white"/>
<path fill-rule="evenodd" clip-rule="evenodd" d="M39.5724 2.28613H58.1408V34.5938H107.657V53.9784H58.1408V86.2861H39.5724V53.9784H-9.94336V34.5938H39.5724V2.28613Z" fill="#F93939"/>
</g>
</g>
<defs>
<filter id="filter0_dd_1104_22442" x="0.000279427" y="0.000418663" width="97.7143" height="97.7143" filterUnits="userSpaceOnUse" color-interpolation-filters="sRGB">
<feFlood flood-opacity="0" result="BackgroundImageFix"/>
<feColorMatrix in="SourceAlpha" type="matrix" values="0 0 0 0 0 0 0 0 0 0 0 0 0 0 0 0 0 0 127 0" result="hardAlpha"/>
<feOffset dy="4.57143"/>
<feGaussianBlur stdDeviation="3.42857"/>
<feComposite in2="hardAlpha" operator="out"/>
<feColorMatrix type="matrix" values="0 0 0 0 0.258824 0 0 0 0 0.278431 0 0 0 0 0.298039 0 0 0 0.08 0"/>
<feBlend mode="normal" in2="BackgroundImageFix" result="effect1_dropShadow_1104_22442"/>
<feColorMatrix in="SourceAlpha" type="matrix" values="0 0 0 0 0 0 0 0 0 0 0 0 0 0 0 0 0 0 127 0" result="hardAlpha"/>
<feOffset/>
<feGaussianBlur stdDeviation="0.285714"/>
<feComposite in2="hardAlpha" operator="out"/>
<feColorMatrix type="matrix" values="0 0 0 0 0.258824 0 0 0 0 0.278431 0 0 0 0 0.298039 0 0 0 0.32 0"/>
<feBlend mode="normal" in2="effect1_dropShadow_1104_22442" result="effect2_dropShadow_1104_22442"/>
<feBlend mode="normal" in="SourceGraphic" in2="effect2_dropShadow_1104_22442" result="shape"/>
</filter>
<clipPath id="clip0_1104_22442">
<rect x="6.85742" y="2.28613" width="84" height="84" rx="42" fill="white"/>
</clipPath>
</defs>
</svg>
