<svg width="75" height="75" viewBox="0 0 75 75" fill="none" xmlns="http://www.w3.org/2000/svg">
<g clip-path="url(#clip0_2002_6996)">
<path d="M0 27.8961C0 12.7419 12.4366 0.457031 27.7778 0.457031H37.963C58.418 0.457031 75 16.8368 75 37.0424V47.1034C75 62.2575 62.5634 74.5424 47.2222 74.5424H27.7778C12.4366 74.5424 0 62.2575 0 47.1034V27.8961Z" fill="#FFF2F8"/>
<path d="M54.7537 14.3613H18.3948C17.9516 14.3613 17.5928 14.7163 17.5928 15.1536V60.761C17.5928 61.1983 17.9516 61.5533 18.3948 61.5533H54.7537C55.1969 61.5533 55.5557 61.1983 55.5557 60.761V15.1536C55.5557 14.7163 55.1969 14.3613 54.7537 14.3613ZM53.9517 55.395C53.9517 57.9208 51.8789 59.9682 49.322 59.9682H23.8265C21.2696 59.9682 19.1968 57.9207 19.1968 55.395V20.5185C19.1968 17.9928 21.2696 15.9453 23.8265 15.9453H49.322C51.8789 15.9453 53.9517 17.9928 53.9517 20.5185V55.395Z" fill="#681986"/>
<path d="M25.7347 43.6728L29.8037 42.7764L30.5469 46.5914C30.6116 46.922 30.88 47.1761 31.2169 47.2252C31.2564 47.2315 31.2955 47.2342 31.3345 47.2342C31.6291 47.2342 31.9039 47.0736 32.044 46.8106L36.5745 38.3007L41.1049 46.8106C41.245 47.0736 41.5198 47.2342 41.8144 47.2342C41.8535 47.2342 41.8925 47.2315 41.9321 47.2252C42.2689 47.1761 42.5378 46.922 42.602 46.5914L43.3452 42.7764L47.4142 43.6728C47.7366 43.744 48.0698 43.613 48.2542 43.3421C48.4387 43.0711 48.4365 42.7168 48.2484 42.449L42.971 34.9151C42.9282 34.8539 42.8763 34.8037 42.8212 34.7583C43.5773 33.5863 44.0211 32.1967 44.0211 30.7035C44.0211 26.5505 40.6323 23.1719 36.4664 23.1719C32.3013 23.1719 28.9124 26.55 28.9124 30.7035C28.9124 32.2537 29.3856 33.6951 30.195 34.894C30.1892 34.9014 30.1823 34.9073 30.1769 34.9151L24.8995 42.449C24.7113 42.7172 24.7092 43.0717 24.8937 43.3421C25.0787 43.613 25.4123 43.744 25.7347 43.6728ZM45.7642 41.6853L42.8891 41.052C42.6763 41.0044 42.4555 41.0446 42.2748 41.1629C42.0936 41.2801 41.9679 41.465 41.9273 41.6757L41.4604 44.072L38.2358 38.0145C39.6062 37.6854 40.8354 36.9904 41.8021 36.0285L45.7642 41.6853ZM36.467 24.7564C39.7484 24.7564 42.4175 27.4241 42.4175 30.7035C42.4175 33.7458 40.1114 36.2573 37.1567 36.6021C37.0669 36.61 37.0124 36.6185 36.9349 36.6238C36.8589 36.6291 36.7894 36.6349 36.7071 36.6407C36.629 36.6439 36.5514 36.646 36.4729 36.646C36.3734 36.6486 36.2943 36.6454 36.2066 36.6391C36.1055 36.6317 36.0147 36.6264 35.9163 36.6185C32.8931 36.3396 30.517 33.7949 30.517 30.7035C30.517 27.4241 33.1867 24.7564 36.467 24.7564ZM31.2645 36.1473C32.2563 37.0891 33.5005 37.7672 34.8886 38.063L31.6896 44.072L31.2227 41.6757C31.1816 41.4655 31.056 41.2801 30.8752 41.1629C30.6939 41.0446 30.4715 41.0044 30.2609 41.052L27.3858 41.6853L31.2645 36.1473Z" fill="#681986"/>
<path d="M40.7289 53.2314H32.4182C31.975 53.2314 31.6162 53.5864 31.6162 54.0237C31.6162 54.461 31.975 54.816 32.4182 54.816H40.7289C41.1722 54.816 41.5309 54.461 41.5309 54.0237C41.5309 53.5864 41.1722 53.2314 40.7289 53.2314Z" fill="#681986"/>
</g>
<defs>
<clipPath id="clip0_2002_6996">
<rect width="75" height="75" fill="white"/>
</clipPath>
</defs>
</svg>
