<svg width="75" height="75" viewBox="0 0 75 75" fill="none" xmlns="http://www.w3.org/2000/svg">
<g clip-path="url(#clip0_2002_7007)">
<path d="M0 27.8961C0 12.7419 12.4366 0.457031 27.7778 0.457031H37.963C58.418 0.457031 75 16.8368 75 37.0424V47.1034C75 62.2575 62.5634 74.5424 47.2222 74.5424H27.7778C12.4366 74.5424 0 62.2575 0 47.1034V27.8961Z" fill="#EAFDFF"/>
<path d="M44 39.6588L52.4874 45.317C52.6097 45.3984 52.7519 45.4451 52.8987 45.4522C53.0455 45.4592 53.1914 45.4263 53.321 45.3569C53.4506 45.2875 53.5589 45.1843 53.6344 45.0582C53.71 44.9322 53.7499 44.788 53.75 44.641V31.3225C53.75 31.1795 53.7124 31.0391 53.6408 30.9154C53.5692 30.7916 53.4662 30.689 53.3422 30.6177C53.2183 30.5465 53.0777 30.5093 52.9347 30.5098C52.7918 30.5103 52.6515 30.5485 52.528 30.6205L44 35.5963" stroke="#066DB0" stroke-width="2" stroke-linecap="round" stroke-linejoin="round"/>
<path d="M40.75 28.2832H24.5C22.7051 28.2832 21.25 29.7383 21.25 31.5332V44.5332C21.25 46.3281 22.7051 47.7832 24.5 47.7832H40.75C42.5449 47.7832 44 46.3281 44 44.5332V31.5332C44 29.7383 42.5449 28.2832 40.75 28.2832Z" stroke="#066DB0" stroke-width="2" stroke-linecap="round" stroke-linejoin="round"/>
</g>
<defs>
<clipPath id="clip0_2002_7007">
<rect width="75" height="75" fill="white"/>
</clipPath>
</defs>
</svg>
