<svg width="75" height="75" viewBox="0 0 75 75" fill="none" xmlns="http://www.w3.org/2000/svg">
<g clip-path="url(#clip0_2002_6986)">
<path d="M0 27.7778C0 12.4366 12.4366 0 27.7778 0H37.963C58.418 0 75 16.582 75 37.037V47.2222C75 62.5634 62.5634 75 47.2222 75H27.7778C12.4366 75 0 62.5634 0 47.2222V27.7778Z" fill="#ECEDFE"/>
<path d="M35.8731 47.4598H18.7355C19.226 40.0899 25.3773 34.2446 32.8667 34.2446C35.5965 34.2446 38.2461 35.0226 40.5279 36.4952C40.9694 36.7793 41.5584 36.6533 41.844 36.2111C42.129 35.7693 42.0014 35.1799 41.5605 34.895C38.9691 33.2241 35.9628 32.3408 32.8667 32.3408C24.0075 32.3408 16.7998 39.5501 16.7998 48.4117C16.7998 48.9371 17.2256 49.3636 17.7517 49.3636H35.8731C36.3987 49.3636 36.8251 48.9372 36.8251 48.4117C36.8251 47.8863 36.3993 47.4598 35.8731 47.4598Z" fill="#2E35B8" stroke="#2E35B8" stroke-width="0.4"/>
<path d="M32.6011 31.2891C37.7698 31.2891 41.9746 27.0839 41.9746 21.9142C41.9746 16.7485 37.7697 12.5459 32.6011 12.5459C27.4359 12.5459 23.2344 16.7486 23.2344 21.9142C23.2344 27.0832 27.4359 31.2891 32.6011 31.2891ZM32.6011 14.4497C36.7195 14.4497 40.0708 17.7987 40.0708 21.9142C40.0708 26.0335 36.7198 29.3853 32.6011 29.3853C28.4867 29.3853 25.1382 26.0336 25.1382 21.9142C25.1382 17.7985 28.4865 14.4497 32.6011 14.4497Z" fill="#2E35B8" stroke="#2E35B8" stroke-width="0.4"/>
<path d="M39.5621 57.7576L35.4534 58.6359C35.0691 58.7176 34.6753 58.556 34.4596 58.2286C34.2437 57.9009 34.2515 57.4746 34.4779 57.1544L39.8295 49.6112C38.8913 48.2915 38.3362 46.6816 38.348 44.9411C38.3804 40.5324 42.0101 36.9782 46.4015 36.9991C50.81 37.0325 54.3702 40.6455 54.3382 45.0536C54.327 46.7523 53.781 48.3618 52.7943 49.7055L58.0318 57.3224C58.2542 57.6451 58.2551 58.0716 58.0341 58.3972C57.8135 58.7226 57.4144 58.8771 57.034 58.7902L52.945 57.8548L52.1699 61.6902C52.0899 62.0858 51.7694 62.387 51.3706 62.4441C51.3258 62.4504 51.2806 62.4537 51.236 62.4537C50.8855 62.4537 50.5586 62.2594 50.3931 61.9422L46.2793 54.0657L42.0543 61.8829L39.5621 57.7576ZM39.5621 57.7576L40.2817 61.6052C40.3559 62.0017 40.6713 62.3083 41.0697 62.3711C41.1187 62.3786 41.1686 62.3825 41.2171 62.3825C41.5628 62.3825 41.8866 62.194 42.0543 61.8829L39.5621 57.7576ZM52.434 45.0401V45.0415C52.4233 46.6664 51.7793 48.1899 50.6194 49.3319C49.4707 50.4633 47.9554 51.0845 46.3459 51.084H46.3449H46.3439H46.3429H46.3419H46.3408H46.3398H46.3388H46.3379H46.3368H46.3358H46.3348H46.3338H46.3328H46.3318H46.3307H46.3297H46.3288H46.3278H46.3268H46.3257H46.3247H46.3237H46.3227H46.3217H46.3206H46.3197H46.3187H46.3177H46.3167H46.3156H46.3146H46.3136H46.3126H46.3116H46.3106H46.3096H46.3086H46.3076H46.3066H46.3056H46.3045H46.3035H46.3025H46.3016H46.3006H46.2995C42.9427 51.0609 40.2294 48.3107 40.2518 44.9537C40.2761 41.6091 43.0081 38.9028 46.3484 38.9028H46.3494H46.3505H46.3515H46.3525H46.3535H46.3545H46.3556H46.3565H46.3575H46.3585H46.3595H46.3606H46.3616H46.3625H46.3635H46.3645H46.3656H46.3666H46.3676H46.3686H46.3696H46.3706H46.3716H46.3726H46.3736H46.3746H46.3756H46.3767H46.3777H46.3787H46.3797H46.3806H46.3817H46.3827H46.3837H46.3847H46.3857H46.3868H46.3878C49.7461 38.9286 52.4587 41.6822 52.434 45.0401ZM51.2732 56.5192L50.837 58.6779L47.7923 52.8489C49.1412 52.6032 50.3976 52.0153 51.4608 51.1259L55.0797 56.389L52.4187 55.7799C52.1669 55.7222 51.9053 55.7692 51.6904 55.9074C51.4745 56.0471 51.3245 56.2677 51.2732 56.5192ZM41.6593 58.6112L41.2551 56.4474C41.2081 56.1952 41.0603 55.9722 40.8472 55.83C40.6331 55.6868 40.3701 55.6363 40.1192 55.6911L37.4446 56.2627L41.1427 51.0506C42.1655 51.9299 43.4114 52.5534 44.7858 52.8258L41.6593 58.6112Z" fill="#2E35B8"/>
<path d="M39.5621 57.7576L35.4534 58.6359C35.0691 58.7176 34.6753 58.556 34.4596 58.2286C34.2437 57.9009 34.2515 57.4746 34.4779 57.1544L39.8295 49.6112C38.8913 48.2915 38.3362 46.6816 38.348 44.9411C38.3804 40.5324 42.0101 36.9782 46.4015 36.9991C50.81 37.0325 54.3702 40.6455 54.3382 45.0536C54.327 46.7523 53.781 48.3618 52.7943 49.7055L58.0318 57.3224C58.2542 57.6451 58.2551 58.0716 58.0341 58.3972C57.8135 58.7226 57.4144 58.8771 57.034 58.7902L52.945 57.8548L52.1699 61.6902C52.0899 62.0858 51.7694 62.387 51.3706 62.4441C51.3258 62.4504 51.2806 62.4537 51.236 62.4537C50.8855 62.4537 50.5586 62.2594 50.3931 61.9422L46.2793 54.0657L42.0543 61.8829M39.5621 57.7576L42.0543 61.8829M39.5621 57.7576L40.2817 61.6052C40.3559 62.0017 40.6713 62.3083 41.0697 62.3711C41.1187 62.3786 41.1686 62.3825 41.2171 62.3825C41.5628 62.3825 41.8866 62.194 42.0543 61.8829M52.434 45.0401V45.0415C52.4233 46.6664 51.7793 48.1899 50.6194 49.3319C49.4707 50.4633 47.9554 51.0845 46.3459 51.084H46.3449H46.3439H46.3429H46.3419H46.3408H46.3398H46.3388H46.3379H46.3368H46.3358H46.3348H46.3338H46.3328H46.3318H46.3307H46.3297H46.3288H46.3278H46.3268H46.3257H46.3247H46.3237H46.3227H46.3217H46.3206H46.3197H46.3187H46.3177H46.3167H46.3156H46.3146H46.3136H46.3126H46.3116H46.3106H46.3096H46.3086H46.3076H46.3066H46.3056H46.3045H46.3035H46.3025H46.3016H46.3006H46.2995C42.9427 51.0609 40.2294 48.3107 40.2518 44.9537C40.2761 41.6091 43.0081 38.9028 46.3484 38.9028H46.3494H46.3505H46.3515H46.3525H46.3535H46.3545H46.3556H46.3565H46.3575H46.3585H46.3595H46.3606H46.3616H46.3625H46.3635H46.3645H46.3656H46.3666H46.3676H46.3686H46.3696H46.3706H46.3716H46.3726H46.3736H46.3746H46.3756H46.3767H46.3777H46.3787H46.3797H46.3806H46.3817H46.3827H46.3837H46.3847H46.3857H46.3868H46.3878C49.7461 38.9286 52.4587 41.6822 52.434 45.0401ZM51.2732 56.5192L50.837 58.6779L47.7923 52.8489C49.1412 52.6032 50.3976 52.0153 51.4608 51.1259L55.0797 56.389L52.4187 55.7799C52.1669 55.7222 51.9053 55.7692 51.6904 55.9074C51.4745 56.0471 51.3245 56.2677 51.2732 56.5192ZM41.6593 58.6112L41.2551 56.4474C41.2081 56.1952 41.0603 55.9722 40.8472 55.83C40.6331 55.6868 40.3701 55.6363 40.1192 55.6911L37.4446 56.2627L41.1427 51.0506C42.1655 51.9299 43.4114 52.5534 44.7858 52.8258L41.6593 58.6112Z" stroke="#2E35B8" stroke-width="0.4"/>
</g>
<defs>
<clipPath id="clip0_2002_6986">
<rect width="75" height="75" fill="white"/>
</clipPath>
</defs>
</svg>
