<svg width="50" height="50" viewBox="0 0 50 50" fill="none" xmlns="http://www.w3.org/2000/svg">
<path d="M2.59432 23.061L2.5 22.9195C2.58171 20.1985 3.23523 17.6474 4.24489 15C4.94808 12.887 4.65173 13.6651 5.47103 12.1201C5.14731 12.883 4.88262 13.7188 4.683 14.483C4.61509 15.1921 4.24489 16.836 4.24489 16.836C4.24489 16.836 4.06981 17.3574 3.86762 18.015C3.66542 18.6726 3.46456 19.5186 3.30171 20.5616C3.13885 21.6046 3.11307 22.9667 3.11307 22.9667L3.01875 23.061H2.59432Z" fill="white"/>
<path d="M4.24489 16.836C4.24489 16.836 4.06981 17.3574 3.86762 18.015C3.66542 18.6726 3.46456 19.5186 3.30171 20.5616C3.13885 21.6046 3.11307 22.9667 3.11307 22.9667L3.01875 23.061H2.59432L2.5 22.9195C2.58171 20.1985 3.23523 17.6474 4.24489 15M4.24489 16.836C4.24489 16.836 5.25455 12.3526 4.24489 15M4.24489 16.836C4.27315 16.1205 4.70821 13.9177 5.47103 12.1201C4.65173 13.6651 4.94808 12.887 4.24489 15" stroke="black" stroke-width="0.2"/>
<path d="M4.29544 15.9638C4.60411 13.9102 5.13842 12.439 6.42694 10.6742C6.47512 10.6082 6.5613 10.5803 6.63748 10.6098C6.86022 10.6962 6.99541 10.7879 7.14415 10.9519C7.18973 11.0022 7.20094 11.0742 7.17679 11.1376L6.83859 12.0254C6.38711 13.694 6.25221 14.4974 6.17972 15.7277C6.17882 15.743 6.17988 15.7591 6.18273 15.7742C6.54132 17.6701 6.84849 18.2105 7.60794 18.3848C7.62914 18.3896 7.65019 18.398 7.66862 18.4095C8.57822 18.978 8.72722 19.3371 8.72511 19.9712C8.72505 19.9871 8.72281 20.0034 8.71864 20.0187C8.42309 21.1055 7.96939 21.4654 7.00404 21.5956C6.98831 21.5977 6.97183 21.5977 6.95608 21.5957C5.79057 21.4457 5.19539 20.9435 4.71642 19.4766C4.23717 18.0088 4.40985 17.248 4.29419 16.01C4.29276 15.9947 4.29316 15.9789 4.29544 15.9638Z" fill="black" stroke="white" stroke-width="0.2"/>
<path d="M24.7117 18.3449C26.2679 20.9386 25.8907 23.9568 22.9668 26.5506C23.7282 27.3112 24.1609 27.6884 24.9475 28.2011C25.4323 28.513 25.6939 28.6615 26.1265 28.8614C26.7696 29.0922 27.1408 29.2065 27.8242 29.3801C28.7158 29.434 29.1926 29.4475 29.8992 29.3801L31.1725 29.0972C32.2485 29.9415 33.1373 30.1734 35.0867 30.2762C34.2947 29.3662 33.9554 28.8183 33.8606 27.7296C34.1652 27.442 34.3392 27.2564 34.6623 26.8807C35.0534 26.3315 35.2356 26.0285 35.5111 25.4659C35.7346 24.7312 35.7764 24.3042 35.7941 23.5324C35.7945 22.6818 35.6822 22.2319 35.3697 21.4574C35.0192 20.5991 34.7259 20.1419 34.0492 19.3352C33.3322 18.5735 32.8642 18.2685 31.9742 17.8261C31.22 17.4378 30.7017 17.3023 29.7106 17.1187C28.6063 17.0396 27.9865 17.0629 26.881 17.3074C25.9397 17.5993 25.4899 17.8573 24.7117 18.3449Z" fill="white" stroke="black" stroke-width="0.2"/>
<path fill-rule="evenodd" clip-rule="evenodd" d="M11.0831 21.646C11.0758 19.0963 11.5693 18.0671 13.0166 16.6943C14.1259 15.6713 16.3471 14.7299 17.7797 14.7608C20.0346 14.5592 21.9297 15.8927 22.4484 16.5057C23.0012 17.1589 24.689 20.0204 24.3348 21.4574C24.3023 21.5894 24.2716 21.9062 24.2417 22.0312C23.9464 23.2666 23.7242 24.1965 22.4484 25.5602C21.2589 26.444 20.5695 26.8761 19.1473 27.1165C17.6559 27.4272 16.8956 27.404 15.7047 26.9278C14.9501 27.7295 12.3564 28.5312 11.7905 27.871C11.7905 27.7956 12.5136 26.9278 12.8751 26.5034C12.8887 25.8394 12.847 25.5463 12.6393 25.2301C11.5627 23.9271 11.2745 23.1315 11.0831 21.646Z" fill="black" stroke="white" stroke-width="0.188637"/>
<path d="M16.789 18.5804C16.53 17.8313 15.888 17.8653 15.6572 18.5804V23.1077C15.8429 23.6246 15.9501 23.7072 16.3175 23.8151H19.4961C20.043 23.3906 19.9959 23.0134 19.5714 22.6832C19.5984 22.615 17.5324 22.7409 17.2135 22.6832C17.0111 22.658 16.9244 22.5405 16.789 22.2588V20.4196V18.5804Z" fill="white" stroke="white" stroke-width="0.0943184"/>
<path d="M27.0222 26.4087C26.7347 26.3784 26.5945 26.311 26.4092 26.0315L26.5978 20.7968C26.6404 20.6865 26.678 20.6203 26.8336 20.4667C27.0284 20.3594 27.1442 20.3435 27.3524 20.3252C27.5612 20.3961 27.6467 20.4514 27.7768 20.561L29.3802 23.2019L31.1251 20.4667C31.2962 20.3663 31.3999 20.337 31.5967 20.3252C31.8848 20.417 32.042 20.4768 32.2098 20.7968L32.4456 26.0315C32.2365 26.3009 32.1118 26.3742 31.8796 26.4087C31.4999 26.3648 31.3734 26.2667 31.2194 26.0315L31.1251 22.4002L29.616 24.711C29.4068 24.8837 29.2547 24.89 28.9558 24.711L27.6353 22.5888L27.5882 26.0315C27.4142 26.2812 27.2871 26.3649 27.0222 26.4087Z" fill="black" stroke="black" stroke-width="0.0943184"/>
<path d="M33.389 6.08317C32.3203 5.5743 31.3929 5.51967 29.3333 5.70589C28.0269 4.70119 27.1909 4.20961 25.6077 3.39509C23.8053 2.59345 22.2982 2.47972 20.373 2.16892L20.3787 2.16879C22.4409 2.12094 24.0276 2.08413 26.1265 2.31043C28.0039 2.6824 29.0104 2.95925 30.6537 3.67805C32.0439 4.31721 32.7785 4.71173 33.9077 5.56442C33.9077 5.91436 33.7871 6.02289 33.389 6.08317Z" fill="white" stroke="black" stroke-width="0.0943184"/>
<path d="M18.0625 4.52762C16.0322 6.24335 15.0981 7.43622 13.9597 10.1396L15.4216 10.4697L16.9307 10.281C18.1209 7.83112 19.8674 5.83484 22.4483 5.04637C23.2985 5.1525 23.7635 5.24086 24.5233 5.56512C25.5587 5.91134 26.0301 6.24083 26.787 6.93274C28.3648 8.27534 29.1285 9.08201 30.0881 10.7055C31.056 9.97769 31.5462 9.88914 32.3517 10.1396C31.5438 8.44351 30.8779 7.47163 29.2392 5.75376C26.7621 3.71035 25.0984 3.0163 21.8352 2.26398C20.0001 2.12045 18.9217 2.26249 16.9307 2.82989C14.239 3.65085 12.9558 4.31667 10.9415 5.75376C10.8861 5.99454 10.9467 6.09434 11.2244 6.22535C11.4566 6.34723 11.5942 6.32883 11.8375 6.31967C14.2498 5.24479 15.6082 4.76413 18.0625 4.52762Z" fill="black" stroke="white" stroke-width="0.2"/>
<path d="M14.8559 12.7801C13.9086 12.9867 10.1941 11.8241 9.43262 11.2238C10.3413 10.4631 10.7553 10.0284 11.2718 9.29031C12.4843 9.88306 13.2454 10.1409 14.9031 10.3278C16.0503 10.3862 16.5761 10.3741 17.3082 10.2807C18.7563 9.92296 19.5705 9.65904 21.0338 8.77156C22.4713 7.69311 23.2205 6.96893 24.4764 5.51758C25.7504 6.0324 26.1917 6.34704 26.74 6.93235L24.948 8.77156C23.2989 10.3839 22.2586 10.9384 20.3735 11.8369C18.5736 12.5942 17.3831 12.8157 14.8559 12.7801Z" fill="white" stroke="black" stroke-width="0.2"/>
<mask id="path-11-inside-1_2116_10142" fill="white">
<path d="M34.3329 12.4975C34.3329 13.8779 33.2138 14.9969 31.8334 14.9969C30.453 14.9969 29.334 13.8779 29.334 12.4975C29.334 11.1171 30.453 9.99805 31.8334 9.99805C33.2138 9.99805 34.3329 11.1171 34.3329 12.4975ZM30.6606 12.4975C30.6606 13.1452 31.1857 13.6703 31.8334 13.6703C32.4812 13.6703 33.0063 13.1452 33.0063 12.4975C33.0063 11.8497 32.4812 11.3247 31.8334 11.3247C31.1857 11.3247 30.6606 11.8497 30.6606 12.4975Z"/>
</mask>
<path d="M34.3329 12.4975C34.3329 13.8779 33.2138 14.9969 31.8334 14.9969C30.453 14.9969 29.334 13.8779 29.334 12.4975C29.334 11.1171 30.453 9.99805 31.8334 9.99805C33.2138 9.99805 34.3329 11.1171 34.3329 12.4975ZM30.6606 12.4975C30.6606 13.1452 31.1857 13.6703 31.8334 13.6703C32.4812 13.6703 33.0063 13.1452 33.0063 12.4975C33.0063 11.8497 32.4812 11.3247 31.8334 11.3247C31.1857 11.3247 30.6606 11.8497 30.6606 12.4975Z" fill="white" stroke="black" stroke-width="0.4" mask="url(#path-11-inside-1_2116_10142)"/>
<path d="M40.0122 35.7857L39.2803 35.453C39.1806 35.4077 39.1405 35.2871 39.1916 35.1902C39.9802 33.6965 40.4215 32.2314 40.5576 30.4174C40.603 29.146 40.4974 28.3516 40.1297 27.6245C40.1029 27.5714 40.0512 27.5357 39.9925 27.526C39.6384 27.4676 39.3985 27.3918 38.9739 27.1736C38.9609 27.1669 38.9484 27.1585 38.9374 27.1489C38.5394 26.8042 38.3625 26.5509 38.2958 25.862C38.2945 25.8495 38.2946 25.8364 38.296 25.8239C38.377 25.0841 38.5199 24.788 38.8946 24.4396C38.9028 24.432 38.9119 24.425 38.9213 24.4191C39.5639 24.0117 39.9411 23.894 40.6519 24.1452C41.058 24.2914 41.2844 24.3535 41.7722 25.1174C41.7797 25.1292 41.7862 25.1424 41.7909 25.1556C42.057 25.9012 42.1894 26.3109 42.3968 27.0219C42.3968 27.0219 42.8684 28.531 42.8684 28.7196C42.8684 28.9083 43.6428 26.592 43.8587 25.1356L43.947 23.3259C43.9507 23.2507 43.9987 23.1849 44.0692 23.1585L44.0843 23.1528C44.2051 23.1075 44.3348 23.1942 44.3379 23.3232C44.3598 24.2273 44.3347 25.0501 44.236 26.1259C44.0829 27.7947 43.8636 28.6497 43.4417 30.2941L43.4343 30.3231C42.4534 32.8957 41.7472 34.1557 40.2258 35.7446C40.1706 35.8022 40.0847 35.8187 40.0122 35.7857Z" fill="white" stroke="black" stroke-width="0.2"/>
<path d="M33.3737 14.6884C35.0136 16.1242 36.0094 16.516 37.6852 16.2196C37.7689 16.2048 37.8317 16.2996 37.7854 16.371C36.723 18.01 36.891 19.1534 38.4173 19.5659C38.429 19.5691 38.4416 19.5712 38.4537 19.5719C39.8537 19.6588 40.4854 18.9513 40.4632 16.844C40.4632 16.8385 40.4636 16.8326 40.4645 16.8271C40.584 16.115 40.7186 15.8343 41.1411 15.7118C41.1601 15.7063 41.1806 15.7075 41.199 15.7147C41.7775 15.9436 42.0872 16.3208 42.5941 17.1061C42.6168 17.1412 42.66 17.1576 42.7001 17.1459L43.6653 16.8644C43.7185 16.8489 43.7465 16.79 43.7263 16.7384C42.3256 13.1677 41.3383 11.5442 39.3391 9.35026C39.3078 9.31586 39.2556 9.30909 39.2168 9.3349L38.0869 10.0882C38.0445 10.1165 38.0325 10.1738 38.0594 10.2171C38.9107 11.5911 39.274 12.3456 38.9149 13.3241C38.9097 13.3382 38.9009 13.3512 38.8897 13.3611C38.0654 14.0909 36.9756 13.8711 34.4412 12.8249C34.3857 12.802 34.3221 12.8356 34.31 12.8944C34.1614 13.6192 33.9386 14.0056 33.3708 14.5476C33.3305 14.586 33.3318 14.6517 33.3737 14.6884Z" fill="black" stroke="white" stroke-width="0.2"/>
<path d="M36.832 4.7207C38.1013 4.72079 39.1365 5.79153 39.1367 7.12012C39.1367 8.4489 38.1015 9.51944 36.832 9.51953C35.5625 9.51953 34.5264 8.44895 34.5264 7.12012C34.5266 5.79148 35.5627 4.7207 36.832 4.7207Z" fill="white" stroke="black" stroke-width="0.2"/>
<path d="M37.501 6.45898C37.4868 6.38931 37.4674 6.29691 37.4375 6.20898C37.4077 6.12134 37.3668 6.03639 37.3096 5.98242C37.2516 5.93062 37.1917 5.90529 37.1289 5.8877C37.0978 5.87898 37.0654 5.8716 37.0322 5.86426C36.9991 5.85693 36.9647 5.84945 36.9287 5.83887V5.83789H36.9258C36.7717 5.83144 36.6177 5.88924 36.4951 5.98145C36.3709 6.07502 36.3394 6.21773 36.3037 6.36426C36.2855 6.4392 36.281 6.53601 36.2891 6.63086C36.2972 6.72558 36.318 6.82001 36.3516 6.88965C36.3843 6.95769 36.4216 7.03674 36.4678 7.10645C36.5112 7.17205 36.5638 7.22952 36.6289 7.26367L36.499 7.39551L36.3018 7.48633C36.0476 7.36802 35.8776 7.27334 35.7568 7.02246C35.6347 6.76871 35.5947 6.453 35.6611 6.17969C35.7277 5.90633 35.9049 5.64681 36.1299 5.47754C36.3553 5.30805 36.6445 5.18458 36.9248 5.19629C37.2053 5.20814 37.4936 5.36454 37.7041 5.55273C37.9137 5.74027 38.0525 5.99452 38.0957 6.27246C38.1392 6.55226 38.1444 6.82796 38.002 7.06934C37.9303 7.19061 37.859 7.27794 37.7734 7.34668C37.6884 7.41484 37.588 7.4646 37.457 7.5127C37.4268 7.5024 37.4049 7.48725 37.3838 7.46777C37.3727 7.45756 37.3618 7.44659 37.3496 7.43457C37.3375 7.42259 37.3241 7.40952 37.3086 7.39648L37.3076 7.39551C37.2287 7.34542 37.1777 7.30093 37.127 7.21777C37.1971 7.18771 37.2626 7.11802 37.3184 7.03906C37.377 6.95597 37.4275 6.86276 37.4658 6.79785V6.79688C37.5326 6.66105 37.5037 6.60313 37.501 6.46094V6.45898Z" fill="black" stroke="black" stroke-width="0.0188637"/>
<path d="M36.8578 7.82224C36.655 7.76422 36.5481 7.68977 36.4006 7.53979C36.3756 7.51445 36.3387 7.50449 36.3047 7.5147C36.1213 7.56965 36.0004 7.60741 35.7639 7.72543C35.7529 7.73093 35.7429 7.73872 35.7349 7.7481C35.5272 7.99255 35.501 8.14854 35.5104 8.41577C35.511 8.43244 35.5162 8.44876 35.5252 8.46274C35.7486 8.80632 35.9304 8.94353 36.3602 9.0543C37.0324 9.1926 37.405 9.01399 37.5864 8.91282C37.8505 8.75375 37.9869 8.65281 38.01 8.31301C38.0106 8.30433 38.0098 8.29526 38.0079 8.28677C37.9108 7.85834 37.7701 7.71734 37.4488 7.60888C37.4173 7.59826 37.3828 7.60617 37.3573 7.62737C37.2373 7.72699 37.1278 7.77773 36.9006 7.82385C36.8864 7.82673 36.8717 7.82623 36.8578 7.82224Z" fill="black" stroke="black" stroke-width="0.0943184"/>
<path d="M43.623 17.5479C44.8923 17.5479 45.9275 18.6187 45.9277 19.9473C45.9277 21.276 44.8925 22.3466 43.623 22.3467C42.3536 22.3467 41.3174 21.2761 41.3174 19.9473C41.3176 18.6186 42.3537 17.5479 43.623 17.5479Z" fill="white" stroke="black" stroke-width="0.2"/>
<path d="M43.5232 21.6889C43.0333 21.894 42.7551 21.8802 42.3847 21.4516C42.3613 21.4246 42.347 21.391 42.342 21.3556C42.3132 21.151 42.2884 21.0187 42.4788 20.8542C42.4866 20.8473 42.4943 20.8399 42.5011 20.832C42.6495 20.6603 42.742 20.5714 43.0567 20.5138C43.1785 20.4827 43.2484 20.4535 43.303 20.4111C43.361 20.3662 43.3658 20.2832 43.333 20.2175L43.3 20.1515C43.295 20.1415 43.2891 20.132 43.2825 20.123C43.1339 19.9214 43.0709 19.7796 43.0575 19.4495C43.0569 19.436 43.0579 19.4224 43.0604 19.4092C43.116 19.1177 43.2028 18.9777 43.4557 18.8306C43.4725 18.8208 43.4909 18.814 43.51 18.8103C43.7364 18.7668 43.8701 18.7786 44.0841 18.9944C44.0908 19.0012 44.0981 19.0076 44.1056 19.0134C44.2394 19.1173 44.3006 19.2223 44.285 19.6596C44.2838 19.6939 44.2728 19.7272 44.2538 19.7557L44.0046 20.1295C43.9491 20.2128 43.9683 20.325 44.0484 20.3851L44.0942 20.4195C44.3314 20.567 44.4696 20.647 44.613 20.8439C44.8723 21.1566 44.995 21.3492 44.9137 21.7553C44.9035 21.8059 44.8706 21.8488 44.8235 21.8699C44.7015 21.9245 44.4348 22.0229 44.0942 22.0229C43.7279 22.0229 43.729 21.8546 43.6834 21.7333C43.6598 21.6705 43.5851 21.6629 43.5232 21.6889Z" fill="white" stroke="black" stroke-width="0.0282955"/>
<path d="M44.2969 19.3057C44.2749 19.1422 44.1744 19.053 44.0566 18.9473C43.9395 18.8421 43.8525 18.7513 43.6875 18.7471C43.6042 18.7449 43.5224 18.7776 43.4473 18.8223C43.3722 18.8669 43.3017 18.9248 43.2402 18.9746C43.1779 19.0251 43.1431 19.063 43.1211 19.1094C43.0994 19.1551 43.0906 19.2087 43.0762 19.2861C43.0618 19.3632 43.0415 19.4486 43.0352 19.5312C43.0288 19.6144 43.0365 19.6981 43.0781 19.7705C43.1111 19.8281 43.1417 19.9094 43.1787 19.9912C43.2153 20.0719 43.2583 20.1529 43.3145 20.2031C43.33 20.217 43.3442 20.2337 43.3535 20.251C43.3627 20.2681 43.367 20.2857 43.3633 20.3027C43.3585 20.3247 43.3514 20.3408 43.3389 20.3545C43.3258 20.3686 43.3055 20.3821 43.2725 20.3955C43.261 20.4002 43.2507 20.4068 43.2412 20.4131C43.2312 20.4198 43.2221 20.4251 43.2129 20.4307C43.1932 20.4426 43.1634 20.4536 43.124 20.4639C43.0849 20.4741 43.0382 20.4839 42.9863 20.4951C42.9717 20.4983 42.9563 20.4973 42.9424 20.4922C42.8083 20.4427 42.7462 20.4047 42.6982 20.3486C42.674 20.3202 42.6525 20.2868 42.6279 20.2432C42.6037 20.2002 42.5749 20.1458 42.5371 20.0801C42.3826 19.8109 42.3289 19.4955 42.3857 19.1904C42.4427 18.8851 42.6072 18.6095 42.8486 18.4141C43.0899 18.2189 43.3929 18.1162 43.7031 18.124C44.0136 18.1319 44.3118 18.2505 44.543 18.458C44.7739 18.6654 44.9235 18.9482 44.9648 19.2559C45.0062 19.5637 44.9368 19.8766 44.7686 20.1377C44.7267 20.2026 44.6958 20.2552 44.6699 20.2988C44.6439 20.3426 44.6224 20.3766 44.5977 20.4053C44.5489 20.4618 44.4859 20.4994 44.3457 20.543C44.3362 20.5459 44.3261 20.5469 44.3164 20.5459C44.2162 20.5354 44.1579 20.5122 44.0635 20.46C44.0582 20.457 44.0532 20.4533 44.0488 20.4492C43.9963 20.4003 43.9656 20.3639 43.9473 20.3311C43.9293 20.2987 43.9226 20.2687 43.9199 20.2305C43.9195 20.2237 43.9218 20.2135 43.9277 20.2002C43.9336 20.1872 43.9426 20.172 43.9541 20.1553C43.9771 20.1215 44.0093 20.0823 44.0449 20.041C44.1157 19.9589 44.2004 19.8677 44.2441 19.7998C44.2893 19.7297 44.3017 19.6478 44.3037 19.5635C44.3047 19.5214 44.3037 19.4784 44.3018 19.4355C44.2998 19.3926 44.2969 19.3495 44.2969 19.3076H44.2979L44.2969 19.3057Z" fill="black" stroke="black" stroke-width="0.0282955"/>
<path d="M38.2002 35.8467C39.4452 35.8469 40.458 36.8775 40.458 38.1523C40.4579 39.4271 39.4451 40.4568 38.2002 40.457C36.9551 40.457 35.9415 39.4272 35.9414 38.1523C35.9414 36.8774 36.955 35.8467 38.2002 35.8467Z" fill="black" stroke="white" stroke-width="0.2"/>
<path d="M36.9971 38.7862L36.9447 38.9436C36.9323 38.9806 36.9308 39.0204 36.9403 39.0583C36.9601 39.1376 37.0252 39.1976 37.1059 39.2111C37.195 39.2259 37.2835 39.181 37.3239 39.1002L37.4476 38.8527C37.4767 38.7945 37.5175 38.743 37.5675 38.7013L37.7388 38.5586C37.7625 38.5388 37.7897 38.5237 37.8189 38.5139L37.8796 38.4937C37.903 38.4859 37.9224 38.4691 37.9334 38.447C37.9512 38.4114 37.9443 38.3682 37.9161 38.3401L37.7983 38.2223C37.7826 38.2065 37.7679 38.1896 37.7545 38.1718L37.6706 38.0598C37.6458 38.0267 37.6254 37.9905 37.61 37.952L37.5726 37.8585C37.5503 37.8028 37.5389 37.7433 37.5389 37.6833V37.5964C37.5389 37.5579 37.5436 37.5194 37.5529 37.482L37.586 37.3497L37.6342 37.2294C37.6644 37.1537 37.7138 37.0872 37.7774 37.0363L37.8358 36.9896C37.8887 36.9472 37.9502 36.9168 38.016 36.9003L38.0484 36.8922C38.0858 36.8829 38.1243 36.8781 38.1628 36.8781H38.266C38.3154 36.8781 38.3644 36.8861 38.4113 36.9017C38.4581 36.9173 38.5022 36.9404 38.5417 36.97L38.6439 37.0467C38.6617 37.06 38.6786 37.0747 38.6944 37.0905L38.7109 37.107C38.7467 37.1428 38.7765 37.1842 38.7992 37.2295L38.8362 37.3034C38.8515 37.3342 38.8635 37.3666 38.8719 37.3999L38.8924 37.482C38.9017 37.5194 38.9065 37.5579 38.9065 37.5964V37.7305C38.9065 37.7905 38.895 37.8499 38.8727 37.9056L38.8481 37.9672C38.8244 38.0265 38.7889 38.0804 38.7437 38.1256L38.5901 38.2792C38.581 38.2883 38.5734 38.2988 38.5677 38.3102C38.5447 38.3562 38.5537 38.4117 38.5901 38.4481L38.6062 38.4642C38.6177 38.4757 38.6309 38.4852 38.6454 38.4925L38.7437 38.5416C38.789 38.5643 38.8304 38.5941 38.8663 38.63L38.8828 38.6465C38.8985 38.6623 38.9132 38.6791 38.9266 38.697L39.0224 38.8248C39.0394 38.8474 39.0543 38.8715 39.067 38.8968L39.1423 39.0474L39.1563 39.0685C39.2065 39.1437 39.2909 39.1889 39.3813 39.1889H39.3978C39.416 39.1889 39.434 39.186 39.4512 39.1803L39.5037 39.1628C39.5413 39.1502 39.5667 39.115 39.5667 39.0753C39.5667 39.0572 39.5613 39.0394 39.5512 39.0242L39.4724 38.906L39.4033 38.7678C39.3868 38.7347 39.3619 38.7066 39.3311 38.6861L39.2867 38.6564C39.2554 38.6356 39.2366 38.6004 39.2366 38.5628C39.2366 38.5406 39.2432 38.5188 39.2555 38.5003L39.302 38.4306C39.3212 38.4018 39.3364 38.3706 39.3474 38.3378L39.4086 38.1541C39.4196 38.121 39.427 38.0867 39.4304 38.0519L39.4642 37.7143C39.4696 37.6603 39.4656 37.6057 39.4525 37.553L39.4252 37.444L39.3028 37.1176C39.2901 37.0838 39.2736 37.0516 39.2536 37.0216L39.133 36.8407C39.1079 36.803 39.0774 36.7691 39.0426 36.74L38.865 36.5921C38.83 36.5629 38.7908 36.5389 38.7489 36.5209L38.5342 36.4289C38.4996 36.414 38.4632 36.4034 38.426 36.3972L38.2958 36.3755C38.232 36.3649 38.1667 36.3675 38.1039 36.3832L37.8849 36.4379C37.843 36.4484 37.8028 36.4646 37.7653 36.486L37.5465 36.611C37.5101 36.6318 37.4767 36.6573 37.447 36.687L37.2087 36.9253L37.1537 36.9804C37.097 37.037 37.0557 37.1072 37.0337 37.1843L37.0092 37.2699C36.9852 37.3541 36.9729 37.4413 36.9729 37.529V37.8967C36.9729 37.9406 36.979 37.9842 36.9911 38.0263L37.0552 38.2508C37.0632 38.2788 37.0738 38.306 37.0869 38.3321L37.1463 38.4509C37.1563 38.4711 37.1616 38.4933 37.1616 38.5158C37.1616 38.5542 37.1463 38.5911 37.1191 38.6183L37.0715 38.666C37.0377 38.6997 37.0122 38.7409 36.9971 38.7862Z" fill="white" stroke="black" stroke-width="0.0943184"/>
<path d="M36.4313 39.0423L36.178 38.9859C36.1098 38.9708 36.0498 39.0323 36.0731 39.0981C36.2191 39.5097 36.5716 39.8738 37.4789 40.4072C37.4876 40.4123 37.4975 40.4162 37.5074 40.4183C38.5123 40.6294 38.9302 40.396 39.6049 40.0428C39.6111 40.0395 39.6172 40.0354 39.6226 40.0308C40.0571 39.6578 40.1309 39.4345 40.2485 39.0789L40.2535 39.0639C40.2655 39.0274 40.2491 38.9875 40.2147 38.9704C40.193 38.9595 40.1675 38.9595 40.1458 38.9704L39.9916 39.0474L39.7727 39.135C39.7616 39.1395 39.7497 39.1418 39.7377 39.1418H39.6754C39.6662 39.1418 39.6571 39.1431 39.6483 39.1457L39.2006 39.28C39.1935 39.2822 39.1862 39.2834 39.1788 39.2839L37.546 39.3746C37.5127 39.3764 37.4808 39.3605 37.4623 39.3327L37.4259 39.2781C37.4084 39.2518 37.3789 39.2361 37.3474 39.2361H37.2564H37.0239C36.9924 39.2361 36.9629 39.2203 36.9455 39.1941L36.823 39.0104C36.8003 38.9763 36.7581 38.9608 36.7186 38.972L36.4777 39.0409C36.4626 39.0452 36.4467 39.0457 36.4313 39.0423Z" fill="white"/>
<path d="M12.4033 40.9347L13.1107 39.9443L14.1011 40.2273C14.6915 40.3313 15.0312 40.3689 15.7045 40.2745L16.6948 40.0387C17.5624 40.9189 18.0868 41.3812 19.1942 42.0665C20.7279 42.9605 21.6109 43.3953 23.2971 43.8585L25.042 44L22.8727 44.0943C21.4367 44.0996 20.6567 44.0392 19.3357 43.7642C17.5454 43.4771 16.8583 43.1982 15.563 42.7267C13.5754 41.93 13.2712 41.5872 12.4033 40.9347Z" fill="white" stroke="black" stroke-width="0.2"/>
<path d="M25.6084 41.5L24.1465 41.1699C24.6276 41.0367 24.7974 40.966 25.0897 40.8398C26.2972 40.0232 26.9418 39.5045 28.0135 38.4347L28.8624 37.2085L29.5698 36.0767C30.5048 35.9586 31.1104 35.9801 32.305 36.171L31.8806 37.2085C31.6333 37.6751 31.4913 37.94 31.0789 38.5761C30.7048 39.1722 30.4557 39.5095 29.8999 40.1324C29.3598 40.6893 29.0429 40.9755 28.438 41.4057L27.1175 41.5H25.6084Z" fill="white" stroke="black" stroke-width="0.2"/>
<path d="M19.9833 39.5091C18.2255 38.0792 17.4518 37.2089 16.7052 35.6821C16.6513 35.5719 16.5086 35.5392 16.4111 35.6137C15.5851 36.2457 15.0285 36.3804 14.2486 36.1993C14.086 36.1615 13.9427 36.3285 14.019 36.4768C14.7095 37.819 15.2792 38.5587 16.3178 39.7082C18.8668 42.0166 20.3645 42.9391 23.1883 43.7596C23.198 43.7624 23.2083 43.7645 23.2182 43.7657C26.1951 44.1306 27.8325 44.0097 30.6542 43.0093C32.8362 41.917 34.2302 41.339 35.5521 40.0443C35.5866 40.0105 35.6073 39.9639 35.6061 39.9155C35.5957 39.4827 35.3726 39.4248 34.9634 39.3843C34.9215 39.3801 34.8788 39.3908 34.8433 39.4135C32.6051 40.843 30.813 41.3148 26.7871 41.5946C24.315 41.5303 22.8327 41.1011 20.0108 39.5277C20.0012 39.5224 19.9918 39.5159 19.9833 39.5091Z" fill="black" stroke="white" stroke-width="0.2"/>
<path d="M30.3969 33.1081C33.6631 33.4469 35.1782 34.0612 36.7338 35.1811C36.8325 35.2522 36.837 35.397 36.744 35.4754L36.0302 36.0765L35.3215 36.8685C35.2662 36.9303 35.1765 36.9484 35.101 36.9142C33.2498 36.0745 32.1999 35.9511 30.3711 35.8879C28.6919 35.987 27.868 36.2662 26.504 36.9725C25.0777 37.854 24.0053 38.7091 22.0698 40.2919C22.0134 40.338 21.9347 40.3476 21.8679 40.3187C21.2775 40.0631 20.8389 40.0553 19.3837 38.9148C19.2873 38.8392 19.2883 38.6927 19.3856 38.6183L19.996 38.1515C21.9018 36.8184 22.8646 35.9713 24.3818 35.0862C27.2734 33.389 28.3539 33.4429 30.3455 33.1098C30.3623 33.107 30.38 33.1064 30.3969 33.1081Z" fill="white" stroke="black" stroke-width="0.2"/>
<path d="M8.53629 40.4154C8.77131 40.163 8.97334 40.0998 9.338 40.0382L9.38516 39.991V39.9439L9.338 39.8495L9.14936 39.7081C8.80459 39.1311 8.64605 38.7895 8.77209 37.9632C8.96883 37.3858 9.18756 37.1968 9.76243 37.0671C10.2107 37.0601 10.4466 37.0997 10.7999 37.3501C11.109 37.7693 11.1878 38.0282 11.1772 38.5291C11.1139 39.1673 10.9497 39.4257 10.6113 39.8495L10.517 39.9439L10.6113 40.0382L11.13 40.2268C11.237 40.3107 11.3179 40.3789 11.3912 40.4579C11.5477 40.6266 11.5999 40.8792 11.5019 41.0873C11.4507 41.196 11.3795 41.2902 11.2715 41.4058C10.896 41.5903 10.6402 41.6572 10.0925 41.7359C9.61787 41.6615 9.30068 41.6509 8.81925 41.5001C8.81925 41.5001 8.34766 41.2643 8.34766 40.9814C8.34766 40.6984 8.37194 40.5929 8.53629 40.4154Z" fill="white" stroke="black" stroke-width="0.2"/>
<path d="M4.90545 33.2006C4.16804 31.7968 3.7795 30.9964 3.25488 29.475L3.96227 29.0977C4.71663 30.0653 5.16717 30.5355 6.08443 31.0784C6.25982 30.9773 6.25721 30.742 6.22591 30.2767C6.24789 29.2167 6.31336 28.8829 6.46171 28.4375C6.74611 27.6363 7.08182 27.4202 8.11228 27.3057C8.858 27.4956 9.26074 27.6265 9.52705 28.579C9.65303 29.3325 9.68457 29.763 8.81967 30.7011C10.6952 30.5493 11.7466 30.5299 13.6299 31.6915C14.8422 31.1668 15.5126 31.0961 16.6481 32.3045C17.2241 33.3152 17.2869 33.8897 16.7896 34.9455C16.0087 35.9636 15.4422 36.2341 14.1487 36.0301C12.8473 35.5827 12.4816 35.0291 12.2151 33.7193L11.2248 33.342C10.3192 33.0289 9.82379 33.0109 8.96114 33.2006C8.42097 33.3406 8.25223 33.5549 8.11228 34.0966C8.46959 35.5975 8.7538 36.0275 9.29126 36.6432L8.44239 37.2563C7.66802 36.6758 7.31437 36.3296 6.79182 35.7C6.06992 34.8631 5.65748 34.3229 4.90545 33.2006Z" fill="white" stroke="black" stroke-width="0.2"/>
<circle cx="14.7612" cy="33.6245" r="1.26762" fill="black" stroke="black" stroke-width="0.2"/>
<path d="M3.06641 23.9619C4.34129 23.962 5.37109 24.9756 5.37109 26.2207C5.37085 27.4656 4.34114 28.4784 3.06641 28.4785C1.7916 28.4785 0.760985 27.4657 0.760742 26.2207C0.760742 24.9755 1.79145 23.9619 3.06641 23.9619Z" fill="white" stroke="black" stroke-width="0.2"/>
<path d="M2.40834 25.7925C2.42949 26.0606 2.52586 26.2837 2.66309 26.4504C2.76099 26.5693 2.76676 26.7109 2.61453 26.7343C2.59772 26.7369 2.58591 26.7406 2.56907 26.743L2.3044 26.7808C2.27827 26.7845 2.25161 26.7802 2.228 26.7684C2.19145 26.7501 2.14844 26.7501 2.11189 26.7684L2.07563 26.7865C1.93536 26.8369 1.84257 26.8944 1.73102 26.9944C1.64428 27.0721 1.5786 27.1708 1.536 27.2793C1.51227 27.3396 1.49743 27.3835 1.48222 27.4313C1.46898 27.4729 1.45755 27.5229 1.45258 27.5662C1.42312 27.8237 1.57978 28.0582 1.8032 28.1895C2.02021 28.3169 2.21351 28.3943 2.47962 28.4664C2.52447 28.4786 2.57043 28.4868 2.61669 28.4912C3.24263 28.5516 3.62967 28.519 4.17815 28.2593C4.31655 28.1938 4.44456 28.0931 4.4946 27.9484C4.5333 27.8365 4.53957 27.7179 4.5279 27.5411C4.46795 27.2343 4.33351 27.073 3.95494 26.8392C3.89757 26.8038 3.834 26.7796 3.76811 26.7652C3.71602 26.7539 3.66475 26.7422 3.61483 26.7288C3.42227 26.6773 3.36601 26.4811 3.52322 26.3586C3.59067 26.306 3.64311 26.2234 3.65803 26.1392C3.69106 25.9527 3.69076 25.8117 3.65472 25.6211C3.64111 25.5491 3.61639 25.4792 3.58021 25.4156C3.40862 25.1136 3.25785 25.0744 3.0533 25.0795C2.9369 25.0824 2.81878 25.1073 2.72393 25.1749C2.63168 25.2406 2.56354 25.3228 2.49264 25.4442C2.43109 25.5495 2.39874 25.6708 2.40834 25.7925Z" fill="white" stroke="black" stroke-width="0.0943184"/>
<path d="M4.2447 25.7487C4.24668 26.0921 4.24028 26.3263 4.16791 26.5357C4.10221 26.7259 3.8869 26.7775 3.68807 26.7468C3.65447 26.7417 3.6152 26.7338 3.58392 26.7204C3.5352 26.6996 3.50195 26.6777 3.47224 26.6407C3.45058 26.6136 3.43533 26.5786 3.43057 26.5443C3.42221 26.484 3.46536 26.4337 3.50846 26.3905L3.51489 26.3841C3.52981 26.3692 3.54365 26.3532 3.55631 26.3364L3.58445 26.2988C3.64568 26.2172 3.67877 26.1179 3.67877 26.0159V25.9844V25.7487C3.67013 25.67 3.66253 25.6202 3.6426 25.5498C3.63562 25.5251 3.62585 25.5013 3.61439 25.4784L3.61161 25.4728C3.59358 25.4368 3.58155 25.3976 3.56144 25.3626C3.54183 25.3286 3.51252 25.2927 3.47987 25.2617C3.45638 25.2394 3.43303 25.2168 3.40987 25.1941C3.38181 25.1667 3.35001 25.1425 3.30259 25.1122C3.27086 25.0919 3.23629 25.0762 3.19973 25.0672C3.18173 25.0627 3.16306 25.0586 3.14367 25.0547C3.09229 25.0445 3.03922 25.0454 2.98828 25.0576C2.75687 25.113 2.59627 25.221 2.43633 25.5425C2.41522 25.585 2.40145 25.6311 2.39945 25.6784C2.38065 26.123 2.70241 26.5829 2.73559 26.6447C2.76606 26.7014 2.38292 26.7935 2.22352 26.7617C2.18505 26.754 2.15869 26.7225 2.13692 26.6899L1.941 26.396C1.90521 26.3423 1.88048 26.2817 1.87011 26.218C1.81355 25.8705 1.8201 25.6714 1.86986 25.4085C1.88042 25.3527 1.90227 25.2996 1.93308 25.2519C2.13575 24.9383 2.28651 24.7519 2.71441 24.5939C2.75935 24.5773 2.80727 24.5691 2.85517 24.568C3.30091 24.5576 3.56821 24.5608 3.86743 24.947C4.10827 25.2092 4.19799 25.3791 4.2447 25.7487Z" fill="white" stroke="black" stroke-width="0.0943184"/>
<path d="M8.53613 5.57031C9.81102 5.57039 10.8408 6.58397 10.8408 7.8291C10.8406 9.07403 9.81087 10.0868 8.53613 10.0869C7.26133 10.0869 6.23071 9.07408 6.23047 7.8291C6.23047 6.58392 7.26118 5.57031 8.53613 5.57031Z" fill="white" stroke="black" stroke-width="0.2"/>
<path d="M7.87904 7.40088C7.9002 7.66899 7.99656 7.89207 8.1338 8.05877C8.23169 8.17768 8.23747 8.31926 8.08524 8.34269C8.06842 8.34528 8.05661 8.34898 8.03977 8.35138L7.77511 8.38919C7.74897 8.39293 7.72232 8.3886 7.6987 8.37679C7.66216 8.35852 7.61914 8.35852 7.5826 8.37679L7.54633 8.39493C7.40606 8.4453 7.31327 8.5028 7.20172 8.60279C7.11498 8.68054 7.0493 8.77924 7.0067 8.88766C6.98297 8.94804 6.96813 8.99192 6.95292 9.03972C6.93968 9.08134 6.92825 9.13125 6.92329 9.17464C6.89383 9.43208 7.05048 9.66664 7.27391 9.79787C7.49091 9.92534 7.68422 10.0027 7.95032 10.0748C7.99518 10.087 8.04113 10.0952 8.08739 10.0996C8.71334 10.16 9.10037 10.1274 9.64885 9.86775C9.78725 9.80223 9.91526 9.7015 9.96531 9.55679C10.004 9.4449 10.0103 9.32625 9.99861 9.14947C9.93865 8.84269 9.80422 8.68145 9.42565 8.44761C9.36828 8.41218 9.3047 8.38795 9.23881 8.37362C9.18673 8.36229 9.13545 8.35056 9.08553 8.3372C8.89297 8.28566 8.83672 8.08954 8.99392 7.96698C9.06137 7.9144 9.11382 7.83177 9.12873 7.74756C9.16177 7.56108 9.16146 7.42011 9.12542 7.22947C9.11182 7.15752 9.0871 7.08763 9.05092 7.02397C8.87933 6.72201 8.72855 6.68285 8.524 6.6879C8.4076 6.69077 8.28948 6.71574 8.19464 6.78328C8.10238 6.84898 8.03424 6.9312 7.96334 7.05256C7.90179 7.15793 7.86945 7.27923 7.87904 7.40088Z" fill="white" stroke="black" stroke-width="0.0943184"/>
<path d="M9.7154 7.35707C9.71738 7.70047 9.71098 7.93473 9.63862 8.14414C9.57291 8.33428 9.3576 8.38588 9.15878 8.35523C9.12517 8.35005 9.0859 8.34218 9.05463 8.32883C9.00591 8.30803 8.97265 8.28611 8.94295 8.24906C8.92129 8.22203 8.90603 8.18705 8.90128 8.15274C8.89291 8.09236 8.93606 8.04205 8.97917 7.99895L8.9856 7.99252C9.00051 7.9776 9.01435 7.96164 9.02701 7.94477L9.05516 7.90724C9.11638 7.8256 9.14948 7.72632 9.14948 7.62428V7.59284V7.35707C9.14083 7.27839 9.13324 7.22864 9.1133 7.15819C9.10632 7.13352 9.09656 7.10973 9.08509 7.08679L9.08231 7.08124C9.06428 7.04518 9.05226 7.00595 9.03214 6.97102C9.01253 6.93697 8.98322 6.90115 8.95058 6.87012C8.92708 6.8478 8.90373 6.82522 8.88057 6.80254C8.85251 6.77505 8.82071 6.75094 8.7733 6.72063C8.74156 6.70035 8.70699 6.68465 8.67043 6.67558C8.65244 6.67112 8.63376 6.66698 8.61437 6.66313C8.56299 6.65292 8.50992 6.65375 8.45898 6.66595C8.22757 6.72137 8.06697 6.82937 7.90704 7.15092C7.88593 7.19336 7.87215 7.23948 7.87015 7.28683C7.85136 7.73142 8.17312 8.19129 8.20629 8.25307C8.23676 8.3098 7.85363 8.40192 7.69423 8.37006C7.65575 8.36237 7.62939 8.3309 7.60763 8.29826L7.4117 8.00436C7.37591 7.95068 7.35118 7.89013 7.34081 7.82645C7.28425 7.47895 7.2908 7.27978 7.34056 7.01685C7.35112 6.96108 7.37298 6.908 7.40379 6.86032C7.60645 6.54672 7.75722 6.36028 8.18511 6.20229C8.23005 6.1857 8.27798 6.1775 8.32587 6.17638C8.77161 6.16599 9.03891 6.16925 9.33813 6.55537C9.57898 6.81763 9.66869 6.98753 9.7154 7.35707Z" fill="white" stroke="black" stroke-width="0.0943184"/>
</svg>
