<svg width="75" height="75" viewBox="0 0 75 75" fill="none" xmlns="http://www.w3.org/2000/svg">
<g clip-path="url(#clip0_2002_6978)">
<path d="M0 27.7778C0 12.4366 12.4366 0 27.7778 0H37.963C58.418 0 75 16.582 75 37.037V47.2222C75 62.5634 62.5634 75 47.2222 75H27.7778C12.4366 75 0 62.5634 0 47.2222V27.7778Z" fill="#FFF0EE"/>
<path d="M27.9135 21.7967C27.8868 21.7725 27.8582 21.7505 27.8275 21.7302C27.8223 21.7266 27.8172 21.723 27.8121 21.7194C27.803 21.713 27.7939 21.7066 27.7842 21.701C27.7482 21.6805 27.7098 21.6645 27.6699 21.6499L27.935 21.8133C27.9313 21.8097 27.9272 21.8067 27.9229 21.8038C27.9197 21.8016 27.9165 21.7992 27.9135 21.7967ZM27.9135 21.7967L28.0382 21.6598C28.0359 21.6577 28.0336 21.6556 28.0313 21.6537L28.0294 21.6522L28.0282 21.6515C28.0282 21.6515 28.0306 21.6532 28.0341 21.6562L27.9135 21.7967ZM36.0601 29.5479L28.066 21.6824L28.0651 21.6816L36.0601 29.5479ZM36.0601 29.5479L49.3912 16.2172C49.7486 15.8599 50.3274 15.8599 50.6848 16.2172L58.2507 23.7831C58.6081 24.1405 58.6079 24.7191 58.2514 25.0769L44.9995 38.3292L54.411 47.3879C54.5172 47.4902 54.5916 47.6145 54.6372 47.7464C56.9086 50.1504 56.8723 53.9515 54.5186 56.3052L36.0601 29.5479ZM19.1474 30.4695C19.1444 30.4658 19.1423 30.4632 19.1393 30.4597C19.1369 30.4569 19.1338 30.4534 19.129 30.4476C19.1206 30.4376 19.1088 30.423 19.0971 30.4053L19.2513 30.3029L19.1474 30.4695ZM19.1474 30.4695C19.151 30.4741 19.1533 30.4771 19.1572 30.4824C19.1598 30.4861 19.1634 30.491 19.1687 30.4981C19.1788 30.5117 19.1944 30.5321 19.2151 30.5523L27.1998 38.4083M19.1474 30.4695L27.1998 38.4083ZM27.1998 38.4083L15.686 49.9225C15.3286 50.2799 15.3286 50.8587 15.686 51.2161L23.2523 58.7829C23.4238 58.9544 23.6568 59.0507 23.8994 59.0507C24.1422 59.0507 24.3744 58.9542 24.5461 58.7831L36.1832 47.1461L45.572 56.2706C45.712 56.4055 45.8815 56.4761 46.0487 56.5043C47.1806 57.5346 48.6323 58.1046 50.1745 58.1046C51.815 58.1046 53.3589 57.4654 54.5186 56.3052L27.1998 38.4083ZM46.2139 21.9821L49.35 25.1181C49.7075 25.4751 49.7075 26.0551 49.35 26.4119M46.2139 21.9821L45.276 29.1917L42.1399 26.0556L44.9199 23.2756L48.0561 26.4118C48.2348 26.5905 48.4694 26.6796 48.7031 26.6796C48.9368 26.6796 49.1713 26.5906 49.35 26.4119M46.2139 21.9821L50.0387 18.1573L56.3107 24.4301L43.6878 37.0534L37.3641 30.831L40.8459 27.3492L43.9821 30.4854C44.1608 30.6641 44.3953 30.7531 44.6291 30.7531C44.8628 30.7531 45.0973 30.6641 45.276 30.4854C45.6335 30.1285 45.6334 29.5486 45.276 29.1917L46.2139 21.9821ZM49.35 26.4119L49.2192 26.2809ZM49.35 26.4119L49.2192 26.2809ZM49.2192 26.2809C49.5042 25.9963 49.5042 25.5338 49.2192 25.2492V26.2809ZM23.3816 25.2393C23.0835 25.327 22.8498 25.5601 22.7621 25.859L22.0435 28.3035L20.4614 28.7689L17.8112 20.2886L26.292 22.9387L25.8266 24.5203L23.3816 25.2393ZM29.0918 37.7029L21.6068 30.3387L23.0386 29.9178C23.3367 29.83 23.5704 29.597 23.6583 29.2981L24.3773 26.8537L26.8223 26.1346C27.1204 26.0468 27.354 25.8139 27.4419 25.515L27.8712 24.0561L43.0434 38.9838L43.0448 38.9852L52.471 48.0589L46.1998 54.3295L29.0926 37.7037L29.0918 37.7029ZM23.8989 56.8424L17.626 50.5691L20.1133 48.0818L23.2494 51.218C23.4282 51.3967 23.6627 51.4858 23.8964 51.4858C24.1301 51.4858 24.3648 51.3967 24.5435 51.218C24.9008 50.8606 24.9008 50.2818 24.5435 49.9244L21.4073 46.7883L23.8225 44.373L26.9586 47.5092C27.1374 47.6879 27.372 47.777 27.6057 47.777C27.8394 47.777 28.0739 47.6879 28.2527 47.5092C28.61 47.1519 28.61 46.573 28.2527 46.2157L25.1165 43.0795L28.5088 39.6872L34.8713 45.8709L23.8989 56.8424ZM53.2236 55.0112C51.7087 56.5252 49.3397 56.6742 47.6549 55.4609L53.6737 49.4421C54.8872 51.1274 54.738 53.4972 53.2236 55.0112Z" fill="#F66962"/>
<path d="M27.9135 21.7967C27.8868 21.7725 27.8582 21.7505 27.8275 21.7302C27.8223 21.7266 27.8172 21.723 27.8121 21.7194C27.803 21.713 27.7939 21.7066 27.7842 21.701C27.7482 21.6805 27.7098 21.6645 27.6699 21.6499L27.935 21.8133C27.9313 21.8097 27.9272 21.8067 27.9229 21.8038C27.9197 21.8016 27.9165 21.7992 27.9135 21.7967ZM27.9135 21.7967L28.0382 21.6598C28.0359 21.6577 28.0336 21.6556 28.0313 21.6537L28.0294 21.6522L28.0282 21.6515C28.0282 21.6515 28.0306 21.6532 28.0341 21.6562L27.9135 21.7967ZM36.0601 29.5479L28.066 21.6824L28.0651 21.6816L36.0601 29.5479ZM36.0601 29.5479L49.3912 16.2172C49.7486 15.8599 50.3274 15.8599 50.6848 16.2172L58.2507 23.7831C58.6081 24.1405 58.6079 24.7191 58.2514 25.0769L44.9995 38.3292L54.411 47.3879C54.5172 47.4902 54.5916 47.6145 54.6372 47.7464C56.9086 50.1504 56.8723 53.9515 54.5186 56.3052M36.0601 29.5479L54.5186 56.3052M54.5186 56.3052C53.3589 57.4654 51.815 58.1046 50.1745 58.1046C48.6323 58.1046 47.1806 57.5346 46.0487 56.5043C45.8815 56.4761 45.712 56.4055 45.572 56.2706L36.1832 47.1461L24.5461 58.7831C24.3744 58.9542 24.1422 59.0507 23.8994 59.0507C23.6568 59.0507 23.4238 58.9544 23.2523 58.7829L15.686 51.2161C15.3286 50.8587 15.3286 50.2799 15.686 49.9225L27.1998 38.4083M54.5186 56.3052L27.1998 38.4083M19.1474 30.4695C19.1444 30.4658 19.1423 30.4632 19.1393 30.4597C19.1369 30.4569 19.1338 30.4534 19.129 30.4476C19.1206 30.4376 19.1088 30.423 19.0971 30.4053L19.2513 30.3029L19.1474 30.4695ZM19.1474 30.4695C19.151 30.4741 19.1533 30.4771 19.1572 30.4824C19.1598 30.4861 19.1634 30.491 19.1687 30.4981C19.1788 30.5117 19.1944 30.5321 19.2151 30.5523L27.1998 38.4083M19.1474 30.4695L27.1998 38.4083M46.2139 21.9821L49.35 25.1181C49.7075 25.4751 49.7075 26.0551 49.35 26.4119M46.2139 21.9821L45.276 29.1917M46.2139 21.9821L50.0387 18.1573L56.3107 24.4301L43.6878 37.0534L37.3641 30.831L40.8459 27.3492L43.9821 30.4854C44.1608 30.6641 44.3953 30.7531 44.6291 30.7531C44.8628 30.7531 45.0973 30.6641 45.276 30.4854C45.6335 30.1285 45.6334 29.5486 45.276 29.1917M49.35 26.4119C49.1713 26.5906 48.9368 26.6796 48.7031 26.6796C48.4694 26.6796 48.2348 26.5905 48.0561 26.4118L44.9199 23.2756L42.1399 26.0556L45.276 29.1917M49.35 26.4119L49.2192 26.2809M49.2192 26.2809C49.5042 25.9963 49.5042 25.5338 49.2192 25.2492V26.2809ZM18.9832 30.1728L15.5439 19.1673M23.3816 25.2393C23.0835 25.327 22.8498 25.5601 22.7621 25.859L22.0435 28.3035L20.4614 28.7689L17.8112 20.2886L26.292 22.9387L25.8266 24.5203L23.3816 25.2393ZM29.0918 37.7029L21.6068 30.3387L23.0386 29.9178C23.3367 29.83 23.5704 29.597 23.6583 29.2981L24.3773 26.8537L26.8223 26.1346C27.1204 26.0468 27.354 25.8139 27.4419 25.515L27.8712 24.0561L43.0434 38.9838L43.0448 38.9852L52.471 48.0589L46.1998 54.3295L29.0926 37.7037L29.0918 37.7029ZM23.8989 56.8424L17.626 50.5691L20.1133 48.0818L23.2494 51.218C23.4282 51.3967 23.6627 51.4858 23.8964 51.4858C24.1301 51.4858 24.3648 51.3967 24.5435 51.218C24.9008 50.8606 24.9008 50.2818 24.5435 49.9244L21.4073 46.7883L23.8225 44.373L26.9586 47.5092C27.1374 47.6879 27.372 47.777 27.6057 47.777C27.8394 47.777 28.0739 47.6879 28.2527 47.5092C28.61 47.1519 28.61 46.573 28.2527 46.2157L25.1165 43.0795L28.5088 39.6872L34.8713 45.8709L23.8989 56.8424ZM53.2236 55.0112C51.7087 56.5252 49.3397 56.6742 47.6549 55.4609L53.6737 49.4421C54.8872 51.1274 54.738 53.4972 53.2236 55.0112Z" stroke="#F66962" stroke-width="0.4"/>
</g>
<defs>
<clipPath id="clip0_2002_6978">
<rect width="75" height="75" fill="white"/>
</clipPath>
</defs>
</svg>
